<?xml version="1.0" standalone="no"?><!DOCTYPE svg PUBLIC "-//W3C//DTD SVG 1.1//EN" "http://www.w3.org/Graphics/SVG/1.1/DTD/svg11.dtd"><svg t="1691651568073" class="icon" viewBox="0 0 1024 1024" version="1.1" xmlns="http://www.w3.org/2000/svg" p-id="5049" xmlns:xlink="http://www.w3.org/1999/xlink" width="200" height="200"><path d="M807.552 249.301333H745.386667V196.736c0-31.573333-24.874667-57.301333-55.594667-57.301333H193.365333c-30.592 0-55.594667 25.728-55.594666 57.301333v543.488c0 31.573333 24.917333 57.301333 55.594666 57.301333h62.165334v52.565334c0 31.573333 24.874667 57.344 55.552 57.344h496.469333c30.592 0 55.552-25.685333 55.552-57.344V306.645333c-0.085333-31.658667-24.96-57.344-55.552-57.344zM193.365333 746.922667a6.570667 6.570667 0 0 1-6.485333-6.698667V196.693333c0-3.712 2.858667-6.741333 6.485333-6.741333h496.426667c3.626667 0 6.528 2.986667 6.528 6.741333v52.565334H311.04c-30.634667 0-55.594667 25.770667-55.594667 57.344v440.277333H193.365333z m620.672 103.168a6.570667 6.570667 0 0 1-6.485333 6.741333H310.997333a6.570667 6.570667 0 0 1-6.485333-6.741333V306.645333c0-3.754667 2.901333-6.741333 6.485333-6.741333h496.469334c3.584 0 6.485333 2.986667 6.485333 6.741333l0.085333 543.445334z m-247.594666-156.629334H426.538667a24.917333 24.917333 0 0 0-24.533334 25.301334c0 13.952 11.008 25.301333 24.533334 25.301333h139.989333a24.917333 24.917333 0 0 0 24.533333-25.301333 25.045333 25.045333 0 0 0-24.618666-25.301334z m128-136.746666H426.581333c-13.525333 0-24.533333 11.349333-24.533333 25.301333s11.008 25.301333 24.533333 25.301333h267.946667c13.525333 0 24.533333-11.349333 24.533333-25.301333s-11.008-25.301333-24.533333-25.301333z m0-131.84H426.581333a24.917333 24.917333 0 0 0-24.533333 25.301333c0 13.952 11.008 25.301333 24.533333 25.301333h267.946667a24.917333 24.917333 0 0 0 24.533333-25.301333 24.917333 24.917333 0 0 0-24.533333-25.301333z" fill="#1296db" p-id="5050"></path></svg>